<svg width="86" height="85" viewBox="0 0 86 85" fill="none" xmlns="http://www.w3.org/2000/svg">
<rect x="1" y="0.5" width="84" height="84" rx="42" fill="black"/>
<rect x="1" y="0.5" width="84" height="84" rx="42" stroke="url(#paint0_linear_10585_8116)"/>
<path d="M64.7734 53.7487L57.5099 61.4688C57.352 61.6365 57.1609 61.7703 56.9486 61.8616C56.7363 61.953 56.5073 62.0001 56.2759 62H21.8432C21.6789 62 21.5182 61.9524 21.3808 61.8631C21.2435 61.7738 21.1354 61.6467 21.0699 61.4974C21.0044 61.3481 20.9844 61.183 21.0122 61.0226C21.0401 60.8621 21.1146 60.7132 21.2267 60.5941L28.4957 52.874C28.6532 52.7067 28.8436 52.5733 29.0552 52.482C29.2669 52.3906 29.4951 52.3432 29.726 52.3428H64.1567C64.321 52.3428 64.4817 52.3904 64.6192 52.4797C64.7564 52.569 64.8645 52.6961 64.9303 52.8455C64.9956 52.9948 65.0156 53.1598 64.9878 53.3203C64.9599 53.4808 64.8854 53.6297 64.7734 53.7487ZM57.5099 38.2026C57.352 38.0349 57.1609 37.9011 56.9486 37.8098C56.7363 37.7184 56.5073 37.6713 56.2759 37.6714H21.8432C21.6789 37.6714 21.5182 37.719 21.3808 37.8083C21.2435 37.8976 21.1354 38.0247 21.0699 38.174C21.0044 38.3234 20.9844 38.4884 21.0122 38.6489C21.0401 38.8093 21.1146 38.9582 21.2267 39.0773L28.4957 46.7974C28.6532 46.9647 28.8436 47.0981 29.0552 47.1895C29.2669 47.2808 29.4951 47.3282 29.726 47.3286H64.1567C64.321 47.3286 64.4817 47.281 64.6192 47.1917C64.7564 47.1024 64.8645 46.9753 64.9303 46.826C64.9956 46.6766 65.0156 46.5116 64.9878 46.3511C64.9599 46.1907 64.8854 46.0418 64.7734 45.9227L57.5099 38.2026ZM21.8432 32.6572H56.2759C56.5073 32.6572 56.7363 32.6102 56.9486 32.5188C57.1609 32.4274 57.352 32.2937 57.5099 32.126L64.7734 24.4059C64.8854 24.2868 64.9599 24.1379 64.9878 23.9774C65.0156 23.817 64.9956 23.6519 64.9303 23.5026C64.8645 23.3533 64.7564 23.2262 64.6192 23.1369C64.4817 23.0476 64.321 23 64.1567 23H29.726C29.4951 23.0004 29.2669 23.0477 29.0552 23.1391C28.8436 23.2305 28.6532 23.3639 28.4957 23.5311L21.2286 31.2513C21.1166 31.3702 21.0421 31.519 21.0142 31.6792C20.9862 31.8395 21.0061 32.0044 21.0714 32.1537C21.1366 32.303 21.2444 32.4301 21.3815 32.5195C21.5186 32.6089 21.6791 32.6568 21.8432 32.6572Z" fill="url(#paint1_linear_10585_8116)"/>
<defs>
<linearGradient id="paint0_linear_10585_8116" x1="11.5104" y1="45.7692" x2="64.1261" y2="19.6097" gradientUnits="userSpaceOnUse">
<stop stop-color="#8A4FF5"/>
<stop offset="1" stop-color="#19FB9B"/>
</linearGradient>
<linearGradient id="paint1_linear_10585_8116" x1="24.7141" y1="62.9295" x2="60.4596" y2="22.2701" gradientUnits="userSpaceOnUse">
<stop offset="0.08" stop-color="#9945FF"/>
<stop offset="0.3" stop-color="#8752F3"/>
<stop offset="0.5" stop-color="#5497D5"/>
<stop offset="0.6" stop-color="#43B4CA"/>
<stop offset="0.72" stop-color="#28E0B9"/>
<stop offset="0.97" stop-color="#19FB9B"/>
</linearGradient>
</defs>
</svg>
