<svg width="32" height="32" viewBox="0 0 32 32" fill="none" xmlns="http://www.w3.org/2000/svg">
    <g clip-path="url(#clip0_6_33)">
        <path
            d="M32 16C32 7.16344 24.8366 0 16 0C7.16344 0 0 7.16344 0 16C0 24.8366 7.16344 32 16 32C24.8366 32 32 24.8366 32 16Z"
            fill="#C4FF61" />
        <g opacity="0.7">
            <path
                d="M25.3535 7.39612C25.9173 7.95455 26.4074 8.55617 26.824 9.18475L25.7068 10.2087C25.2902 9.5801 24.8 8.97837 24.2362 8.41994L25.3535 7.39612Z"
                fill="black" fill-opacity="0.7" />
            <path
                d="M26.8241 9.1851C27.1735 9.70548 27.4753 10.2535 27.721 10.8124L26.6037 11.8362C26.3581 11.2774 26.0563 10.7294 25.7068 10.2089L26.8241 9.1851Z"
                fill="black" fill-opacity="0.7" />
            <path
                d="M24.5094 6.63444C24.8026 6.87497 25.0827 7.12755 25.3539 7.39619L24.2367 8.42012C23.9654 8.15137 23.6854 7.8989 23.3921 7.65826L24.5094 6.63444Z"
                fill="black" fill-opacity="0.7" />
            <path
                d="M27.7209 10.8121C27.8501 11.0978 27.962 11.3913 28.0654 11.6847L26.9481 12.7085C26.8449 12.4152 26.7329 12.1217 26.6037 11.836L27.7209 10.8121Z"
                fill="black" fill-opacity="0.7" />
            <path
                d="M28.0647 11.6842C28.2547 12.2377 28.3973 12.7941 28.4968 13.3576L27.3795 14.3816C27.28 13.8179 27.1374 13.2616 26.9476 12.7081L28.0647 11.6842Z"
                fill="black" />
            <path
                d="M17.4037 3.96282C19.9422 4.0696 22.457 4.95802 24.5093 6.63388L23.392 7.6577C21.3396 5.98185 18.8249 5.09341 16.2863 4.98671L17.4037 3.96282Z"
                fill="black" />
            <path
                d="M24.7472 10.7557C24.6926 10.6767 24.6464 10.5976 24.5959 10.5227L23.4786 11.5465C23.529 11.6215 23.5753 11.7004 23.6301 11.7796L24.7472 10.7557Z"
                fill="black" fill-opacity="0.7" />
            <path
                d="M24.5956 10.5232C24.2673 10.0318 23.8827 9.56789 23.4545 9.14382L22.3373 10.1677C22.7654 10.5917 23.15 11.0557 23.4784 11.547L24.5956 10.5232Z"
                fill="black" fill-opacity="0.7" />
            <path
                d="M23.455 9.14324C21.8313 7.53516 19.6699 6.59788 17.3503 6.50071L16.233 7.52448C18.5526 7.62188 20.7142 8.55905 22.3377 10.1671L23.455 9.14324Z"
                fill="black" fill-opacity="0.7" />
            <path
                d="M17.3946 3.96247L17.4031 3.9627L16.2859 4.98671L16.2773 4.98636L17.3946 3.96247Z"
                fill="black" fill-opacity="0.7" />
            <path
                d="M27.924 18.9671C28.138 18.4235 28.3049 17.8582 28.4203 17.2916L27.3031 18.3156C27.1876 18.882 27.0207 19.4472 26.8067 19.9909L27.924 18.9671Z"
                fill="black" />
            <path
                d="M16.8794 3.95076L17.3948 3.96328L16.2776 4.98717L15.762 4.97465L16.8794 3.95076Z"
                fill="black" />
            <path
                d="M16.8708 3.95018L16.8794 3.9503L15.7621 4.9743L15.7534 4.97407L16.8708 3.95018Z"
                fill="black" fill-opacity="0.7" />
            <path
                d="M27.556 19.8063C27.6888 19.5311 27.8174 19.2515 27.9246 18.9674L26.8072 19.9913C26.7001 20.2755 26.5716 20.555 26.4388 20.8302L27.556 19.8063Z"
                fill="black" />
            <path
                d="M17.3504 6.50105L17.3418 6.50094L16.2245 7.52471L16.2332 7.52505L17.3504 6.50105Z"
                fill="black" fill-opacity="0.7" />
            <path
                d="M17.3417 6.50014L16.8905 6.49324L15.7732 7.51724L16.2244 7.52391L17.3417 6.50014Z"
                fill="black" fill-opacity="0.7" />
            <path
                d="M16.8911 6.49381L16.8826 6.49358L15.7652 7.51747L15.7738 7.51782L16.8911 6.49381Z"
                fill="black" fill-opacity="0.7" />
            <path
                d="M9.71599 6.34509C11.8014 4.74919 14.3354 3.95466 16.8712 3.95087L15.754 4.97464C13.2181 4.97866 10.6841 5.77314 8.59877 7.36892L9.71599 6.34509Z"
                fill="black" fill-opacity="0.7" />
            <path d="M9.4249 10.4572L24.7469 10.7556L23.6296 11.7793L8.30752 11.481L9.4249 10.4572Z"
                fill="black" fill-opacity="0.7" />
            <path
                d="M16.8817 6.49405C14.5995 6.50014 12.4517 7.32864 10.8059 8.83679L9.68875 9.86067C11.3344 8.35241 13.4821 7.52402 15.7644 7.51805L16.8817 6.49405Z"
                fill="black" fill-opacity="0.7" />
            <path
                d="M28.4967 13.3572L5.62111 12.9081L4.50384 13.9321L27.3796 14.3811L28.4967 13.3572Z"
                fill="black" fill-opacity="0.7" />
            <path
                d="M24.3127 23.7174C24.3258 23.7054 24.3475 23.6936 24.3605 23.6818L23.2433 24.7056C23.2303 24.7176 23.2085 24.7294 23.1954 24.7414L24.3127 23.7174Z"
                fill="black" fill-opacity="0.7" />
            <path
                d="M9.48282 6.52819C9.55971 6.46563 9.63737 6.40431 9.71576 6.3444L8.59845 7.36836C8.52016 7.42813 8.44251 7.48947 8.36549 7.55213L9.48282 6.52819Z"
                fill="black" fill-opacity="0.7" />
            <path
                d="M9.32677 6.65861C9.37856 6.61484 9.43067 6.57161 9.48299 6.52905L8.36579 7.55289C8.31334 7.59555 8.26124 7.63878 8.20957 7.68245L9.32677 6.65861Z"
                fill="black" fill-opacity="0.7" />
            <path
                d="M9.29042 6.68887L9.32659 6.65819L8.20926 7.68214L8.17309 7.71282L9.29042 6.68887Z"
                fill="black" fill-opacity="0.7" />
            <path
                d="M9.24919 6.72299L9.29016 6.68792L8.17283 7.71187L8.13186 7.74693L9.24919 6.72299Z"
                fill="black" fill-opacity="0.7" />
            <path
                d="M9.13536 6.82189C9.17296 6.78874 9.21078 6.7558 9.24869 6.72319L8.13148 7.74702C8.09345 7.77974 8.05564 7.81269 8.01803 7.84583L9.13536 6.82189Z"
                fill="black" />
            <path
                d="M10.8067 8.83667L10.7516 8.88767L9.6343 9.91167L9.68943 9.86067L10.8067 8.83667Z"
                fill="black" fill-opacity="0.7" />
            <path
                d="M28.4215 17.2921L5.61881 16.8488L4.50143 17.8727L27.3042 18.3158L28.4215 17.2921Z"
                fill="black" fill-opacity="0.7" />
            <path
                d="M10.7512 8.88779L10.6965 8.93924L9.57916 9.96313L9.63384 9.91167L10.7512 8.88779Z"
                fill="black" fill-opacity="0.7" />
            <path
                d="M9.07422 6.87607L9.13508 6.82207L8.01776 7.84602L7.9569 7.90002L9.07422 6.87607Z"
                fill="black" fill-opacity="0.7" />
            <path
                d="M10.6974 8.93935L10.6412 8.99323L9.5238 10.0171L9.58008 9.96336L10.6974 8.93935Z"
                fill="black" fill-opacity="0.7" />
            <path
                d="M9.05169 6.89719L9.07497 6.87637L7.95776 7.9002L7.93437 7.92115L9.05169 6.89719Z"
                fill="black" fill-opacity="0.7" />
            <path
                d="M9.02387 6.92244L9.05144 6.89763L7.93411 7.92157L7.90666 7.94627L9.02387 6.92244Z"
                fill="black" fill-opacity="0.7" />
            <path
                d="M8.99805 6.94394L9.02338 6.92103L7.90605 7.94497L7.88072 7.96789L8.99805 6.94394Z"
                fill="black" fill-opacity="0.7" />
            <path
                d="M8.94623 6.99343L8.99923 6.94512L7.8819 7.96907L7.82891 8.01738L8.94623 6.99343Z"
                fill="black" fill-opacity="0.7" />
            <path
                d="M8.87229 7.05962L8.94474 6.99264L7.82741 8.01658L7.75496 8.08357L8.87229 7.05962Z"
                fill="black" fill-opacity="0.7" />
            <path
                d="M8.80129 7.12738L8.87288 7.05999L7.75556 8.08394L7.68396 8.15132L8.80129 7.12738Z"
                fill="black" fill-opacity="0.7" />
            <path
                d="M8.77939 7.14797L8.80115 7.12724L7.68382 8.15118L7.66206 8.17191L8.77939 7.14797Z"
                fill="black" fill-opacity="0.7" />
            <path
                d="M8.72789 7.19847L8.77979 7.1486L7.66246 8.17254L7.61057 8.22242L8.72789 7.19847Z"
                fill="black" fill-opacity="0.7" />
            <path
                d="M10.6402 8.9922C10.2368 9.38204 9.87413 9.80921 9.56125 10.2597L8.44386 11.2836C8.75686 10.833 9.1196 10.4059 9.52288 10.016L10.6402 8.9922Z"
                fill="black" fill-opacity="0.7" />
            <path
                d="M6.44215 19.4004L27.5563 19.8066L26.4389 20.8305L5.32477 20.4243L6.44215 19.4004Z"
                fill="black" fill-opacity="0.7" />
            <path d="M16.5 6L17 15.5L16.5 25L14.4863 24.2076L14.8586 4.8586L16.5 6Z" fill="black"
                fill-opacity="0.7" />
            <path
                d="M7.32923 8.8384C7.73134 8.26326 8.19655 7.71193 8.72766 7.19848L7.61035 8.22243C7.07935 8.73577 6.61413 9.28709 6.21202 9.86223L7.32923 8.8384Z"
                fill="black" fill-opacity="0.7" />
            <path
                d="M9.55654 10.2642L9.42491 10.4576L8.30764 11.4814L8.43939 11.2881L9.55654 10.2642Z"
                fill="black" fill-opacity="0.7" />
            <path
                d="M6.43461 10.3924C6.68274 9.85787 6.98232 9.33274 7.32887 8.83734L6.21165 9.86117C5.86512 10.3566 5.56554 10.8817 5.3173 11.4164L6.43461 10.3924Z"
                fill="black" />
            <path
                d="M24.3602 23.6812L9.57515 23.3918L8.45788 24.4156L23.243 24.7051L24.3602 23.6812Z"
                fill="black" fill-opacity="0.7" />
            <path
                d="M9.66072 23.4595C13.8086 26.8041 19.9861 27.0114 24.3131 23.717L23.1957 24.7409C18.8688 28.0354 12.6913 27.828 8.54356 24.4834L9.66072 23.4595Z"
                fill="black" fill-opacity="0.7" />
            <path
                d="M6.06122 11.2933C6.17298 10.9888 6.29749 10.6888 6.43487 10.3931L5.31767 11.417C5.18028 11.7126 5.05566 12.0127 4.94391 12.3173L6.06122 11.2933Z"
                fill="black" />
            <path
                d="M5.62237 12.9087C5.72453 12.3623 5.87397 11.8212 6.0619 11.2933L4.9447 12.3171C4.75677 12.845 4.60733 13.3862 4.50499 13.9326L5.62237 12.9087Z"
                fill="black" />
            <path
                d="M5.61881 16.849C5.7308 17.4416 5.89034 18.0229 6.10158 18.5893L4.98431 19.6131C4.77308 19.0469 4.61365 18.4655 4.50154 17.873L5.61881 16.849Z"
                fill="black" fill-opacity="0.7" />
            <path
                d="M6.10055 18.5883C6.20852 18.8612 6.31638 19.1342 6.44158 19.3993L5.32442 20.4232C5.19922 20.1581 5.09125 19.8852 4.98339 19.6122L6.10055 18.5883Z"
                fill="black" fill-opacity="0.7" />
            <path
                d="M9.57445 23.3909C9.60432 23.4121 9.62982 23.4373 9.65957 23.4586L8.5423 24.4824C8.51243 24.4612 8.48705 24.4361 8.4573 24.4148L9.57445 23.3909Z"
                fill="black" fill-opacity="0.7" />
        </g>
        <path
            d="M24.3607 23.6818C24.3476 23.6937 24.3259 23.7055 24.3128 23.7175C19.986 27.012 13.8084 26.8045 9.66071 23.46C9.63096 23.4387 9.60547 23.4134 9.5756 23.3923L24.3607 23.6818Z"
            fill="black" />
        <path
            d="M28.0663 11.6852C27.9629 11.3918 27.8509 11.0983 27.7218 10.8126C27.476 10.2537 27.1742 9.70569 26.8249 9.1853C26.4082 8.55672 25.918 7.95499 25.3543 7.39657C25.0829 7.12781 24.8029 6.87534 24.5096 6.6347C22.4573 4.95885 19.9426 4.07042 17.404 3.96373L17.3955 3.9635C17.2236 3.95937 17.0518 3.95523 16.8798 3.95098L16.8713 3.95075C14.3355 3.95477 11.8015 4.74922 9.71604 6.34513C9.63775 6.40491 9.55998 6.46635 9.48309 6.5289C9.43076 6.57145 9.37867 6.61469 9.32687 6.65847C9.31479 6.66867 9.30274 6.6789 9.2907 6.68915C9.27694 6.70089 9.26333 6.71255 9.24963 6.72434C9.21171 6.75695 9.1739 6.78989 9.13631 6.82305C9.11593 6.84104 9.09573 6.85897 9.07546 6.87708C9.06769 6.884 9.05993 6.89095 9.05207 6.89802C9.04287 6.90627 9.03379 6.91443 9.02463 6.92272C9.01617 6.93035 9.00773 6.93799 8.9993 6.94564C8.98159 6.9617 8.96392 6.9778 8.9463 6.99395C8.92197 7.01625 8.89785 7.03854 8.87385 7.06094C8.84984 7.08333 8.82592 7.10582 8.80212 7.12843C8.79493 7.13525 8.78764 7.1422 8.78046 7.14904C8.76307 7.16564 8.74573 7.1823 8.72855 7.1989C8.19744 7.71235 7.73222 8.26366 7.33012 8.83882C6.9837 9.3341 6.684 9.85935 6.43588 10.3939C6.2985 10.6896 6.17387 10.9897 6.06224 11.2941C5.8743 11.822 5.72486 12.3631 5.62261 12.9096L28.4983 13.3586C28.3987 12.795 28.2562 12.2387 28.0663 11.6852ZM9.42629 10.4583C9.47017 10.394 9.51404 10.3294 9.55792 10.2649C9.55838 10.2644 9.55953 10.2635 9.5601 10.2629C9.56056 10.2625 9.56125 10.262 9.5616 10.2617C9.87448 9.81116 10.2378 9.3833 10.6412 8.99346C10.6599 8.97542 10.6786 8.95739 10.6974 8.93958C10.7155 8.92235 10.7338 8.90524 10.752 8.88813C10.7704 8.87113 10.7888 8.85413 10.8071 8.83724C12.4529 7.32898 14.6006 6.50059 16.8828 6.4945L16.8914 6.49485L17.3427 6.50162L17.3512 6.50185C19.6707 6.59914 21.8323 7.53631 23.4558 9.1445C23.8839 9.56846 24.2686 10.0324 24.5969 10.5238C24.6474 10.5987 24.6936 10.6777 24.7484 10.7568L9.42629 10.4583Z"
            fill="black" />
        <path
            d="M6.44273 19.4007C6.31742 19.1355 6.20956 18.8627 6.1017 18.5897C5.89036 18.0234 5.73093 17.4419 5.61894 16.8496L28.4217 17.2927C28.3062 17.8592 28.1393 18.4245 27.9253 18.9681C27.8182 19.2523 27.6897 19.5318 27.5569 19.807L6.44273 19.4007Z"
            fill="black" />
        <path
            d="M15.9261 5.52154C16.1653 5.40855 16.4113 5.3113 16.6574 5.21404C17.168 5.02348 17.6923 4.87972 18.2264 4.77874L17.8268 25.3396C17.316 25.2354 16.8064 25.0849 16.3162 24.892C16.0599 24.7954 15.808 24.6795 15.5598 24.5598L15.9261 5.52154Z"
            fill="black" />
    </g>
    <defs>
        <clipPath id="clip0_6_33">
            <rect width="32" height="32" fill="white" />
        </clipPath>
    </defs>
</svg>