<svg width="32" height="32" viewBox="0 0 32 32" fill="none" xmlns="http://www.w3.org/2000/svg">
<path d="M31 16C31 24.2843 24.2843 31 16 31C7.71573 31 1 24.2843 1 16C1 7.71573 7.71573 1 16 1C24.2843 1 31 7.71573 31 16Z" fill="#EAF0FF" stroke="#5EC2FF" strokeWidth="2"/>
<g opacity="0.6">
<path d="M11.0759 15.1L10.944 15.3077C9.42691 17.8 9.7567 21.0538 11.8014 23.1308C12.9227 24.3769 14.5057 25 16.0887 25C16.0887 25 16.0887 25 11.0759 15.1Z" fill="#00A3FF"/>
<path d="M16.0888 18.0769L11.0803 15.1C16.1215 25.0692 16.0887 25 16.0887 25C16.0887 22.8538 16.0888 20.3615 16.0888 18.0769Z" fill="#00A3FF"/>
<path d="M21.0478 15.1L21.1783 15.3077C22.6791 17.8 22.3528 21.0538 20.3301 23.1308C19.1556 24.3769 17.6547 25 16.0887 25C16.0887 25 16.0889 25 21.0478 15.1Z" fill="#00A3FF"/>
<path d="M16.0888 18.0769L21.0646 15.0308C16.0889 25 16.0887 25 16.0887 25C16.0887 22.8538 16.0888 20.3615 16.0888 18.0769Z" fill="#00A3FF"/>
<path d="M16.0889 11.3614V16.5538L20.4099 13.9922L16.0889 11.3614Z" fill="#00A3FF"/>
<path d="M16.0889 11.3614L11.7022 13.9922L16.0889 16.5538V11.3614Z" fill="#00A3FF"/>
<path d="M16.0887 7L11.7022 13.9922L16.0889 11.3614L16.0887 7Z" fill="#00A3FF"/>
<path d="M16.0889 11.3614L20.4099 13.9922L16.0887 7L16.0889 11.3614Z" fill="#00A3FF"/>
</g>
</svg>
