<svg width="97" height="24" viewBox="0 0 97 24" fill="none" xmlns="http://www.w3.org/2000/svg">
    <g clip-path="url(#clip0_6_2)">
        <g clip-path="url(#clip1_6_2)">
            <path
                d="M46.7607 11.6324C47.5166 10.4986 47.8946 9.21779 47.8946 7.83198C47.8946 6.57216 47.5796 5.41736 46.9707 4.34651C46.3408 3.27567 45.5009 2.4358 44.4301 1.8059C43.3592 1.19699 42.1834 0.88203 40.9446 0.88203H32V3.82159H40.9446C42.0575 3.82159 43.0023 4.22053 43.8002 4.99742C44.5771 5.77429 44.976 6.71913 44.976 7.85298C44.976 8.98682 44.5771 9.91066 43.8002 10.7085C43.0233 11.4854 42.0785 11.8844 40.9446 11.8844H32V22.1518H34.9396V14.8239H40.9446C40.9656 14.8239 41.0076 14.8239 41.0496 14.8239C41.0916 14.8239 41.1336 14.8239 41.1546 14.8239L44.976 22.1728H47.9156L43.7792 14.215C45.018 13.6271 46.0049 12.7872 46.7607 11.6324Z"
                fill="black" />
            <path
                d="M55.5328 9.84309V12.7826H70.5035V9.84309H55.5328ZM55.5328 19.0817L54 21.9583H70.5245V19.0817H55.5328ZM54 0.667454L55.5328 3.60701H70.5035V0.667454H54Z"
                fill="black" />
            <path
                d="M93.9673 0.881863V16.2305L78.2195 0V22.1936H81.159V7.05492L96.9066 23.1595V0.881863H93.9673Z"
                fill="black" />
            <path
                d="M10.1605 2.29865C10.4211 2.18186 10.6814 2.06535 10.9418 1.97746C11.4913 1.77288 12.0406 1.62615 12.6189 1.50785L12.6265 22.4601C12.0639 22.3615 11.5446 22.2195 11.0113 22.0339C10.7372 21.9343 10.4634 21.8343 10.1894 21.7058L10.1605 2.29865Z"
                fill="url(#paint0_linear_6_2)" />
            <path
                d="M18.2862 19.9184C18.2713 19.9332 18.2565 19.9481 18.2416 19.9629C14.1885 23.3334 8.36828 23.2737 4.38938 20.0669C4.35962 20.0371 4.34473 20.0222 4.31529 19.9928L18.2862 19.9184Z"
                fill="url(#paint1_linear_6_2)" />
            <path
                d="M21.6267 7.93687C21.5226 7.65464 21.4189 7.37273 21.2999 7.07562C21.0476 6.52629 20.7803 5.9918 20.4242 5.48727C20.0231 4.8783 19.5481 4.28443 19.0136 3.74995C18.7612 3.4976 18.4791 3.2452 18.1971 3.02254C16.2372 1.419 13.8617 0.587601 11.4416 0.543018C11.2784 0.528281 11.1149 0.542952 10.9666 0.543097C8.56149 0.602582 6.18577 1.46351 4.24074 3.08176C4.00346 3.28992 3.75104 3.51258 3.5135 3.75012C2.93447 4.32915 2.42947 4.95257 1.99887 5.62064C1.67246 6.12564 1.39031 6.64527 1.18253 7.17982C1.06364 7.47666 0.944767 7.77347 0.841074 8.08552C0.66271 8.61977 0.5441 9.15444 0.440051 9.70368L3.00872 9.68899L19.5037 9.6147L22.0721 9.59967C21.9683 9.02079 21.8196 8.48613 21.6267 7.93687ZM4.00327 7.17965C4.04779 7.10537 4.07746 7.04594 4.12194 6.97168C4.44871 6.46697 4.83492 5.96236 5.28033 5.51695C6.80955 3.98773 8.84335 3.11153 10.9964 3.0375L11.4268 3.02252C13.6094 3.06714 15.6731 3.94307 17.2319 5.50186C17.6476 5.9176 18.004 6.363 18.3306 6.8381C18.3753 6.91247 18.4196 6.98653 18.4643 7.06091L4.00327 7.17965Z"
                fill="url(#paint2_linear_6_2)" />
            <path
                d="M1.31603 16.1027C1.19713 15.8353 1.07853 15.5683 0.989361 15.3009C0.781522 14.7368 0.633178 14.1727 0.514182 13.5786L22.0573 13.4748C21.9533 14.0538 21.805 14.5884 21.6118 15.1375C21.5081 15.4198 21.404 15.7018 21.2706 15.9841L1.31603 16.1027Z"
                fill="url(#paint3_linear_6_2)" />
        </g>
    </g>
    <defs>
        <linearGradient id="paint0_linear_6_2" x1="0.4638" y1="15.4442" x2="19.6995" y2="14.5469"
            gradientUnits="userSpaceOnUse">
            <stop offset="0.327843" stop-color="#8A4FF5" />
            <stop offset="0.739365" stop-color="#4AA8CE" />
        </linearGradient>
        <linearGradient id="paint1_linear_6_2" x1="6.40675" y1="21.3606" x2="16.9337" y2="20.8315"
            gradientUnits="userSpaceOnUse">
            <stop stop-color="#9945FF" />
            <stop offset="0.285" stop-color="#8A4FF5" />
            <stop offset="0.555" stop-color="#4AA8CE" />
            <stop offset="1" stop-color="#19FB9B" />
        </linearGradient>
        <linearGradient id="paint2_linear_6_2" x1="2.67021" y1="10.67" x2="21.0982" y2="9.6909"
            gradientUnits="userSpaceOnUse">
            <stop stop-color="#9945FF" />
            <stop offset="0.285" stop-color="#8A4FF5" />
            <stop offset="0.555" stop-color="#4AA8CE" />
            <stop offset="1" stop-color="#19FB9B" />
        </linearGradient>
        <linearGradient id="paint3_linear_6_2" x1="3.13815" y1="16.7207" x2="20.666" y2="15.8251"
            gradientUnits="userSpaceOnUse">
            <stop stop-color="#9945FF" />
            <stop offset="0.285" stop-color="#8A4FF5" />
            <stop offset="0.555" stop-color="#4AA8CE" />
            <stop offset="1" stop-color="#19FB9B" />
        </linearGradient>
        <clipPath id="clip0_6_2">
            <rect width="97" height="24" fill="white" />
        </clipPath>
        <clipPath id="clip1_6_2">
            <rect width="97" height="24" fill="white" />
        </clipPath>
    </defs>
</svg>