<svg width="46" height="46" viewBox="0 0 46 46" fill="none" xmlns="http://www.w3.org/2000/svg">
<g clip-path="url(#clip0_1435_4087)">
<rect x="0.257812" y="0.438477" width="45.3032" height="45.3032" rx="22.6516" fill="black"/>
<g clip-path="url(#clip1_1435_4087)">
<path d="M23 46C35.7025 46 46 35.7025 46 23C46 10.2975 35.7025 0 23 0C10.2975 0 0 10.2975 0 23C0 35.7025 10.2975 46 23 46Z" fill="#0052FF"/>
<path d="M23.1025 38.9829C32.017 38.9829 39.2434 31.7688 39.2434 22.8698C39.2434 13.9709 32.017 6.75684 23.1025 6.75684C14.6449 6.75684 7.70666 13.2502 7.01758 21.5154H28.3524V24.2243H7.01758C7.70666 32.4893 14.6449 38.9829 23.1025 38.9829Z" fill="white"/>
</g>
</g>
<defs>
<clipPath id="clip0_1435_4087">
<rect x="0.257812" y="0.438477" width="45.3032" height="45.3032" rx="22.6516" fill="white"/>
</clipPath>
<clipPath id="clip1_1435_4087">
<rect width="46" height="46" fill="white"/>
</clipPath>
</defs>
</svg>
