<svg width="29" height="28" viewBox="0 0 29 28" fill="none" xmlns="http://www.w3.org/2000/svg">
<path d="M14.5 2C21.1281 2 26.5 7.37188 26.5 14C26.5 20.6281 21.1281 26 14.5 26C7.87188 26 2.5 20.6281 2.5 14C2.5 7.37188 7.87188 2 14.5 2Z" fill="#0052FF"/>
<path d="M14.5023 18.2188C12.1727 18.2188 10.2836 16.332 10.2836 14C10.2836 11.668 12.1727 9.78125 14.5023 9.78125C16.5906 9.78125 18.325 11.3047 18.6578 13.2969H22.907C22.5484 8.96562 18.9227 5.5625 14.5 5.5625C9.84062 5.5625 6.0625 9.34062 6.0625 14C6.0625 18.6594 9.84062 22.4375 14.5 22.4375C18.9227 22.4375 22.5484 19.0344 22.907 14.7031H18.6555C18.3203 16.6953 16.5906 18.2188 14.5023 18.2188Z" fill="#FAFAFA"/>
</svg>
