<?xml version="1.0" encoding="UTF-8"?>
<svg version="1.0" xmlns="http://www.w3.org/2000/svg"
 width="512.000000pt" height="512.000000pt" viewBox="0 0 512.000000 512.000000"
 preserveAspectRatio="xMidYMid meet">
<metadata>
Created by potrace 1.14, written by Peter Selinger 2001-2017
</metadata>
<g transform="translate(0.000000,512.000000) scale(0.100000,-0.100000)"
fill="#6f56fd" stroke="none">
<path d="M2320 5110 c-502 -52 -982 -248 -1365 -557 -200 -161 -397 -378 -538
-593 -80 -122 -210 -382 -262 -524 -141 -384 -186 -831 -126 -1242 151 -1024
895 -1851 1897 -2109 223 -58 388 -78 634 -78 246 0 411 20 634 78 913 235
1614 940 1847 1858 123 483 95 1027 -76 1493 -52 142 -182 402 -262 524 -190
289 -454 553 -743 743 -136 89 -384 212 -536 266 -139 50 -355 104 -504 126
-124 19 -478 28 -600 15z m785 -1379 c79 -35 154 -117 175 -192 5 -18 11 -177
12 -353 1 -177 4 -396 6 -488 l3 -168 204 0 205 0 0 357 0 356 24 41 c32 55
89 86 155 86 29 0 64 -6 79 -14 36 -19 78 -65 91 -99 7 -18 11 -155 11 -378
l0 -349 200 0 200 0 0 -112 c0 -133 -10 -176 -52 -224 -77 -87 -199 -96 -285
-21 -60 53 -73 94 -73 235 l0 122 -175 0 -174 0 -3 -402 -3 -403 -24 -38 c-74
-120 -229 -140 -327 -42 -24 25 -47 59 -53 81 -7 25 -11 181 -11 422 l0 382
-312 -2 -313 -3 -5 -515 -5 -515 -30 -54 c-33 -60 -87 -110 -154 -143 -37 -19
-63 -23 -136 -23 -78 0 -97 4 -147 28 -68 34 -139 109 -164 175 -17 43 -19 92
-22 550 l-3 502 -202 -2 -202 -3 -5 -200 c-6 -221 -8 -233 -77 -301 -51 -51
-110 -75 -187 -75 -103 0 -183 44 -233 129 -27 46 -28 51 -33 247 l-5 200
-202 3 -203 2 0 108 c0 133 11 172 62 228 47 51 91 68 164 62 71 -6 125 -44
159 -111 22 -46 25 -63 25 -169 l0 -118 265 0 265 0 0 318 c0 192 4 332 11
355 6 21 26 56 45 77 96 106 263 86 334 -40 l25 -45 3 -332 3 -333 325 0 324
0 0 478 c0 537 1 543 69 630 68 86 153 124 261 118 39 -2 86 -12 115 -25z"/>
</g>
</svg>
