<svg width="188" height="83" viewBox="0 0 188 83" fill="none" xmlns="http://www.w3.org/2000/svg">
<path d="M175.676 12.4524L175.306 12.0894C167.499 4.30666 157.114 0.0184564 146.07 0.0184564C135.027 0.0184564 124.642 4.30666 116.834 12.0894L95.867 33.0075L85.4387 43.4111L64.4715 64.3292C58.2883 70.4939 50.0688 73.89 41.3262 73.89C32.5837 73.89 24.3641 70.4939 18.181 64.3292C13.1607 59.3211 9.96145 52.9781 8.94016 45.9951C7.93117 39.1475 9.08782 32.2938 12.2747 26.1783L12.2994 26.1291L12.324 26.0799C13.2468 24.4557 15.8124 20.3028 19.6637 16.7591L19.6883 16.7344L19.713 16.7098C25.6869 11.4619 33.3651 8.57025 41.3385 8.57025C43.3811 8.57025 45.4299 8.76097 47.4294 9.13627C47.5217 9.14857 47.614 9.16703 47.7124 9.19164C47.8847 9.22855 48.0569 9.26547 48.2292 9.30239C48.3153 9.32084 48.4015 9.3393 48.4876 9.35775H48.5122L48.5368 9.37006C54.5108 10.7482 59.9679 13.7813 64.3115 18.131C67.5107 21.3364 69.9717 25.1078 71.6267 29.3283L73.2693 33.5243H29.5814C27.2127 33.5243 25.287 35.45 25.287 37.8186C25.287 40.1873 27.2127 42.113 29.5814 42.113H66.7417C70.0578 42.113 73.2201 40.8579 75.6441 38.5815C79.717 34.7486 80.9229 28.8669 78.6527 23.9389C76.6347 19.5645 73.8846 15.6024 70.47 12.1509L68.3597 10.0222C64.2746 6.4969 59.6111 3.84523 54.4554 2.13487H54.4431L54.2278 2.0672C53.6863 1.89493 53.1695 1.72881 52.6651 1.58731L52.6281 1.57501C52.462 1.53194 52.2959 1.48272 52.1298 1.43965L52.0867 1.42735L52.0437 1.41504C51.6253 1.29815 51.2746 1.21201 50.9362 1.13203C50.5732 1.0459 50.1979 0.96592 49.8227 0.892092L49.7611 0.879789C49.6381 0.85518 49.515 0.830567 49.392 0.799805C49.2997 0.781348 49.2013 0.75674 49.109 0.738283C46.5742 0.252245 43.9533 0 41.3385 0C40.0219 0 38.693 0.0615222 37.3764 0.190722L37.2288 0.203025H37.1734C36.675 0.252244 36.0598 0.319921 35.4692 0.406054H35.4138V0.412208C35.3523 0.424512 35.2908 0.430665 35.2354 0.436818C34.6755 0.516798 34.1218 0.609083 33.5435 0.719826L33.2482 0.781349C32.7621 0.879787 32.3007 0.972074 31.8639 1.07666C31.7101 1.11358 31.5378 1.15664 31.3655 1.19971C30.8549 1.32891 30.3073 1.47042 29.6798 1.64884C29.606 1.67344 29.526 1.6919 29.446 1.71651C28.7385 1.93184 28.2032 2.10411 27.711 2.27638H27.6864L27.6618 2.29483C27.6311 2.30714 27.5941 2.31329 27.5572 2.3256C23.1706 3.86369 19.1162 6.09084 15.5047 8.9517L15.0125 9.3393C8.59563 14.5627 4.129 21.2872 1.74189 29.3283C1.68651 29.5129 1.6373 29.6913 1.59423 29.8636C1.56347 29.9867 1.5327 30.1035 1.49579 30.2204C1.46503 30.3435 1.42811 30.4604 1.39735 30.5834C1.37274 30.6634 1.35429 30.7434 1.32968 30.8295L1.31737 30.8787L1.30507 30.9403L1.29276 30.9956L1.28046 31.051C1.20663 31.3279 1.14511 31.6109 1.07743 31.8877C1.05897 31.98 1.04052 32.0662 1.01591 32.1523C0.991296 32.263 0.966687 32.3799 0.942077 32.4968V32.546L0.92362 32.5953C-0.848263 40.8702 -0.0607591 49.3543 3.2 57.1309C3.42148 57.6539 3.62451 58.1214 3.82754 58.5706L3.83984 58.589C3.83984 58.589 3.8583 58.6259 3.86445 58.6444L3.89522 58.7182C5.50714 62.2189 7.56203 65.4366 10.0414 68.3159L12.1578 70.42C19.9591 78.172 30.3196 82.4418 41.3324 82.4418C52.3451 82.4418 62.7611 78.1536 70.5684 70.3647L91.5357 49.4466L91.5603 49.422L93.7383 47.244L95.9162 49.422L116.859 70.3585C124.531 78.012 135.248 82.4048 146.243 82.4048C149.719 82.4048 153.176 81.968 156.511 81.1067C165.426 78.7995 172.79 74.0315 178.395 66.9378C191.333 50.5417 190.14 27.2058 175.682 12.4339L175.676 12.4524ZM172.765 60.1579L171.843 61.4376H171.775C167.075 67.2085 160.621 70.4939 160.332 70.6415L160.307 70.6538L160.282 70.6661C155.883 72.7764 150.968 73.8961 146.064 73.8961C137.322 73.8961 129.102 70.5 122.925 64.3353L122.901 64.3107L122.876 64.28L102.432 42.8451L100.358 40.6672L102.487 38.5446L122.937 18.1433C129.121 11.9787 137.34 8.58255 146.083 8.58255C154.825 8.58255 163.045 11.9787 169.228 18.1433C174.74 23.6436 178.112 30.928 178.733 38.6615C179.348 46.3273 177.226 53.9624 172.772 60.1579H172.765Z" fill="white"/>
</svg>
