<svg width="100" height="100" viewBox="0 0 100 100" fill="none" xmlns="http://www.w3.org/2000/svg">
<rect width="100" height="100" rx="50" fill="black"/>
<path fill-rule="evenodd" clip-rule="evenodd" d="M42.7119 52.3624V32.5815L33 33.438V53.2189V72.9998L62.1356 70.4304V60.54L52.4238 61.3964V51.506L62.1356 50.6496V40.7591L57.2713 41.1881V31.2976L47.7446 32.1377V37.0915L52.4069 36.6804V51.5075L47.5426 51.9364V61.8269L42.7119 62.2529V52.3624ZM62.1356 40.7591L67 40.3301V30.4397L62.1356 30.8687V40.7591Z" fill="#98D120"/>
<path fill-rule="evenodd" clip-rule="evenodd" d="M42.7119 48.923V29.1421L33 29.9985V49.7794V69.5603L62.1356 66.991V57.1005L52.4238 57.957V48.0665L62.1356 47.2101V37.3197L57.2713 37.7486V27.8582L47.7446 28.6983V33.6521L52.4069 33.2409V48.068L47.5426 48.497V58.3874L42.7119 58.8134V48.923ZM62.1356 37.3197L67 36.8907V27.0002L62.1356 27.4292V37.3197Z" fill="#C4FF61"/>
</svg>
