<svg width="32px" height="32px" fill="none" xmlns="http://www.w3.org/2000/svg"><path fill-rule="evenodd" clip-rule="evenodd" d="M13.4898 0.663086V11.6727C13.4898 12.0504 13.796 12.3565 14.1736 12.3565C14.5513 12.3565 14.8574 12.0504 14.8574 11.6727L14.8574 0.663086H28.4414C29.2801 0.663086 29.96 1.343 29.96 2.18171V15.2655L18.9346 15.2655C18.5569 15.2655 18.2508 15.5716 18.2508 15.9493C18.2508 16.3269 18.5569 16.6331 18.9346 16.6331L29.96 16.6331V29.1045C29.96 29.9432 29.2801 30.6231 28.4414 30.6231H1.51863C0.679912 30.6231 0 29.9432 0 29.1045V2.18171C0 1.343 0.679912 0.663086 1.51863 0.663086H13.4898ZM14.8574 19.7806C14.8574 19.403 14.5513 19.0968 14.1736 19.0968C13.796 19.0968 13.4898 19.403 13.4898 19.7806L13.4899 30.6228H14.8574V19.7806Z" fill="#FF4500"></path></svg>