<svg width="1277" height="1276" viewBox="0 0 1277 1276" fill="none" xmlns="http://www.w3.org/2000/svg">
<path d="M1276.99 697.009C1276.99 698.014 1276.66 699.353 1276.66 700.357C1248.87 1006.01 1005.82 1244.37 709.876 1275.17C707.867 1275.51 705.858 1275.51 703.85 1275.84L1276.99 697.009Z" fill="#C4FF61"/>
<path d="M920.786 65.2817C904.717 57.5818 888.313 50.2168 871.574 43.856C839.1 31.1344 804.953 21.0909 770.136 14.0606C728.289 5.35634 684.767 0.669434 640.242 0.669434C618.816 0.669434 597.725 1.67385 576.634 3.68252C429.331 18.078 297.093 82.6902 196.325 179.776L195.99 180.111C189.295 186.807 182.599 193.502 175.904 200.198L175.569 200.532C79.4873 301.97 16.2141 435.212 3.15774 582.85C1.48385 601.597 0.814453 620.68 0.814453 639.762C0.814453 687.635 6.17091 734.17 15.8795 778.695C23.2446 812.508 33.6227 845.651 46.3443 877.12C53.3746 894.529 61.0746 911.602 69.4441 928.341C84.1743 957.132 100.913 984.919 119.661 1011.03L224.781 904.907L901.369 221.623L1006.49 115.498C979.372 96.7509 950.582 80.0119 920.786 65.2817ZM162.178 760.282C161.173 755.93 160.169 751.578 159.165 747.226V746.891C151.465 712.074 147.447 675.918 147.447 639.762C147.447 513.216 194.651 394.034 281.024 302.64L281.359 302.305L298.767 284.562L299.102 284.227C391.166 195.511 512.022 146.968 640.242 146.968C674.054 146.968 707.867 150.316 740.675 157.011C745.697 158.015 750.719 159.355 756.075 160.359L162.178 760.282Z" fill="#C4FF61"/>
<path d="M419.622 1240.02C403.887 1234.33 388.487 1227.63 373.088 1220.94C341.618 1206.54 311.488 1189.47 282.697 1170.05L1166.51 277.197C1185.6 304.649 1202.67 334.109 1217.06 364.574C1224.76 380.309 1231.46 396.713 1237.82 413.117L419.622 1240.02Z" fill="#C4FF61"/>
</svg>
