<svg width="1556" height="896" viewBox="0 0 1556 896" fill="none" xmlns="http://www.w3.org/2000/svg">
<path d="M97.6032 822.032H180.688C186.666 822.032 191.547 826.875 191.547 832.891V884.954C191.547 890.932 186.704 895.813 180.688 895.813H10.9992C5.02132 895.813 0.140625 890.97 0.140625 884.954V595.809C0.140625 589.831 4.98348 584.95 10.9992 584.95H86.7446C92.7225 584.95 97.6032 589.793 97.6032 595.809V822.032Z" fill="#FAF0F0"/>
<path d="M543.411 600.766L440.046 801.411V884.954C440.046 890.932 435.204 895.813 429.188 895.813H353.442C347.465 895.813 342.584 890.97 342.584 884.954V801.411L239.219 600.766C235.511 593.539 240.733 584.95 248.867 584.95H335.547C339.822 584.95 343.681 587.447 345.459 591.345L392.185 695.167L438.911 591.345C440.652 587.447 444.549 584.95 448.824 584.95H533.763C541.898 584.95 547.119 593.539 543.411 600.766Z" fill="#FAF0F0"/>
<path d="M891.529 895.775H810.752C807.12 895.775 803.715 893.959 801.709 890.894L701.75 739.473V884.916C701.75 890.894 696.907 895.775 690.891 895.775H615.146C609.168 895.775 604.287 890.932 604.287 884.916V595.771C604.287 589.793 609.13 584.912 615.146 584.912H695.847C699.517 584.912 702.96 586.766 704.966 589.869L804.925 743.862V595.771C804.925 589.793 809.768 584.912 815.784 584.912H891.529C897.507 584.912 902.388 589.755 902.388 595.771V884.916C902.388 890.894 897.545 895.775 891.529 895.775Z" fill="#FAF0F0"/>
<path d="M1074.46 662.666V700.88H1160.19C1166.17 700.88 1171.05 705.723 1171.05 711.739V763.348C1171.05 769.326 1166.21 774.207 1160.19 774.207H1074.46V818.097H1173.36C1179.34 818.097 1184.22 822.94 1184.22 828.956V884.954C1184.22 890.932 1179.38 895.813 1173.36 895.813H987.857C981.879 895.813 976.998 890.97 976.998 884.954V595.809C976.998 589.831 981.841 584.95 987.857 584.95H1173.36C1179.34 584.95 1184.22 589.793 1184.22 595.809V651.807C1184.22 657.785 1179.38 662.666 1173.36 662.666H1074.46Z" fill="#FAF0F0"/>
<path d="M1446.6 891.197L1392.77 814.994L1348.5 890.402C1346.53 893.732 1342.97 895.775 1339.15 895.775H1254.1C1245.51 895.775 1240.33 886.316 1244.94 879.089L1336.58 735.538L1242.03 602.052C1236.92 594.863 1242.07 584.912 1250.88 584.912H1339.72C1343.24 584.912 1346.57 586.615 1348.57 589.49L1400.22 662.628L1442.75 590.285C1444.71 586.955 1448.27 584.912 1452.09 584.912H1537.14C1545.73 584.912 1550.92 594.409 1546.3 601.636L1456.44 742.122L1553.19 878.673C1558.29 885.862 1553.15 895.813 1544.33 895.813H1455.5C1451.98 895.813 1448.65 894.11 1446.64 891.234L1446.6 891.197Z" fill="#FAF0F0"/>
<path d="M745.865 145.028L630.545 221.155C627.14 223.387 627.14 228.381 630.545 230.651L746.887 307.459C752.827 311.356 756.383 318.015 756.383 325.091V445.713C756.383 450.594 750.897 453.431 746.925 450.669L540.99 306.967C535.655 303.259 532.515 297.168 532.515 290.698V161.071C532.515 154.601 535.693 148.509 540.99 144.801L746.925 1.09893C750.935 -1.70095 756.383 1.17459 756.383 6.05547V125.429C756.383 133.299 752.411 140.677 745.865 145.028Z" fill="#FAF0F0"/>
<path d="M1022.82 161.108V290.735C1022.82 297.205 1019.64 303.297 1014.34 307.005L808.406 450.707C804.395 453.507 798.947 450.631 798.947 445.75V325.128C798.947 318.015 802.504 311.394 808.444 307.496L924.786 230.689C928.191 228.457 928.191 223.462 924.786 221.192L809.465 145.065C802.882 140.714 798.947 133.374 798.947 125.466V6.09285C798.947 1.21197 804.433 -1.62574 808.406 1.13631L1014.34 144.838C1019.68 148.546 1022.82 154.638 1022.82 161.108Z" fill="#FAF0F0"/>
</svg>
