<svg width="615" height="615" viewBox="0 0 615 615" fill="none" xmlns="http://www.w3.org/2000/svg">
<rect x="615" y="615" width="615" height="615" rx="307.5" transform="rotate(-180 615 615)" fill="url(#paint0_radial_227_5436)"/>
<path fill-rule="evenodd" clip-rule="evenodd" d="M150.997 464.26C150.997 464.26 150.997 464.261 150.998 464.261L150.998 464.26L151.002 464.262C151.339 464.615 151.679 464.96 152.023 465.297C176.68 490.192 209.539 506.599 244.199 511.43C255.006 512.423 265.875 511.919 276.621 511.42C279.606 511.282 282.582 511.144 285.544 511.038C294.028 510.631 302.579 510.457 311.133 510.284C319.425 510.116 327.72 509.947 335.958 509.566C413.734 504.326 482.015 479.278 501.319 395.903C501.478 395.308 501.638 394.709 501.798 394.108C505.198 381.371 508.883 367.566 510.575 354.602C513.141 337.808 513.12 320.094 512.919 303.537C511.933 283.105 511.806 263.128 512.31 242.509C509.24 207.203 490.823 174.335 465.866 149.628C430.192 115.974 380.028 102.067 331.916 102.246C297.518 101.157 263.706 103.603 229.67 111.127C208.171 115.625 186.629 122.541 168.32 135.102C137.194 156.193 118.872 190.821 111.567 226.971L111.533 227.129C107.79 244.712 104.223 261.47 103.445 279.009C102.475 295.767 103.234 313.123 104.339 329.809C104.633 333.101 104.906 336.396 105.179 339.691C106.58 356.614 107.981 373.534 112.264 390.137C119.738 416.952 131.584 443.839 150.993 464.256C150.994 464.257 150.995 464.258 150.996 464.26L150.997 464.26ZM212.454 470.958C224.248 478.287 236.727 484.616 249.742 489.825C251.743 490.625 253.757 491.458 255.785 492.296C265.5 496.313 275.54 500.465 285.993 501.77C311.541 505.278 337.229 496.598 359.243 484.158C380.856 470.983 397.965 452.734 415.101 434.456C426.521 422.274 437.953 410.08 450.739 399.367C459.701 391.275 468.738 382.523 476.018 372.779C493.678 346.979 506.406 315.649 505.023 283.878C504.846 270.883 499.076 258.649 493.402 247.355C487.134 234.029 480.378 220.969 472.686 208.588C467.666 220.929 459.937 231.79 452.201 242.66C451.776 243.258 451.351 243.855 450.927 244.452C440.833 259.771 433.73 276.449 426.599 293.196C421.985 304.028 417.36 314.89 411.905 325.43C403.804 344.138 395.238 363.839 379.893 377.756C366.83 390.731 348.747 397.605 331.569 404.135C329.362 404.974 327.17 405.807 325.006 406.647C306.511 414.737 288.885 423.476 271.948 434.004C264.113 438.495 256.807 443.741 249.484 449C240.489 455.458 231.468 461.935 221.408 467.057C218.586 468.439 215.584 469.758 212.454 470.958ZM411.674 142.872C397.727 147.5 384.683 155.359 371.723 163.168C362.802 168.543 353.92 173.894 344.812 178.151C326.728 187.01 308.615 195.469 289.715 203.281C270.552 210.855 251.334 220.014 236.689 234.66C225.266 245.058 219.503 260.232 213.949 274.858C212.001 279.987 210.079 285.048 207.948 289.812C205.672 294.461 203.455 299.132 201.241 303.796C194.881 317.198 188.546 330.544 180.899 343.171C177.853 348.587 174.113 354.525 170.14 360.832C160.89 375.517 150.38 392.202 144.432 408.959C142.156 406.09 139.971 403.201 137.909 400.307C131.244 389.712 125.689 378.455 121.084 366.703C108.727 336.881 112.178 302.88 124.86 273.715C129.627 262.378 135.493 250.934 143.203 241.321C151.767 230.482 161.782 220.956 171.776 211.451C178.916 204.66 186.045 197.879 192.626 190.637C198.895 184.488 204.926 177.937 210.976 171.364C229.686 151.041 248.586 130.51 275.3 121.029C322.19 100.766 372.108 114.668 411.674 142.872ZM214.096 444.793C200.046 446.975 185.363 448.707 174.032 441.241L174.028 441.241C164.414 431.115 165.721 414.438 168.015 400.402C173.434 373.128 185.628 345.137 206.752 325.676C213.792 319.021 221.271 312.804 229.044 306.982C235.078 302.654 241.975 299.157 248.901 295.646C259.618 290.213 270.403 284.745 278.161 276.109C289.106 265.313 297.246 252.171 305.4 239.007C307.329 235.892 309.259 232.776 311.227 229.69C321.851 213.369 335.1 199 350.388 187.179C369.105 171.641 424.566 153.129 444.016 171.46C451.439 182.138 450.061 195.567 448.684 208.978C448.562 210.163 448.441 211.348 448.325 212.53C447.334 221.686 446.13 231.46 442.966 240.513C436.708 259.036 423.054 273.514 408.361 285.938C394.471 299.417 377.884 310.067 361.495 320.11C345.484 330.829 332.996 343.919 323.606 360.929C314.717 378.331 304.641 395.896 290.266 409.346C270.415 430.386 242.268 441.599 214.096 444.793Z" fill="url(#paint1_radial_227_5436)"/>
<mask id="mask0_227_5436" style="mask-type:alpha" maskUnits="userSpaceOnUse" x="129" y="120" width="367" height="368">
<circle cx="312.5" cy="304.5" r="183.5" fill="#D9D9D9"/>
</mask>
<g mask="url(#mask0_227_5436)">
<path d="M150.697 464.213C118.865 427.146 162.281 375.693 180.601 343.124C190.908 326.103 198.832 307.774 207.649 289.765C215.859 271.415 220.961 248.657 236.391 234.613C251.035 219.967 270.253 210.809 289.417 203.235C308.316 195.423 326.429 186.964 344.513 178.105C377.222 162.818 406.999 133.421 446.211 139.476C468.111 143.334 481.216 166.88 477.66 187.693C475.391 210.282 462.833 227.229 450.628 244.406C434.005 269.633 425.494 298.549 411.606 325.383C403.506 344.091 394.939 363.792 379.594 377.71C364.852 392.352 343.718 399.224 324.707 406.6C306.212 414.69 288.586 423.429 271.649 433.957C254.192 443.964 239.361 457.718 221.109 467.011C200.265 477.216 169.548 484.023 150.704 464.215L150.697 464.213ZM173.734 441.194C185.064 448.661 199.747 446.929 213.797 444.746C241.969 441.552 270.116 430.34 289.967 409.299C304.342 395.849 314.418 378.285 323.307 360.883C332.697 343.872 345.185 330.783 361.197 320.063C377.585 310.02 394.172 299.37 408.062 285.891C422.755 273.467 436.409 258.989 442.667 240.466C445.831 231.413 447.035 221.64 448.026 212.483C449.449 197.915 451.796 183.035 443.717 171.413C424.267 153.082 368.806 171.595 350.09 187.132C334.802 198.954 321.553 213.322 310.928 229.643C300.642 245.775 291.396 262.712 277.863 276.063C265.09 290.279 244.114 295.911 228.746 306.936C220.972 312.757 213.494 318.974 206.454 325.629C185.33 345.09 173.135 373.081 167.716 400.356C165.422 414.391 164.115 431.069 173.729 441.194L173.734 441.194Z" fill="url(#paint2_radial_227_5436)"/>
</g>
<defs>
<radialGradient id="paint0_radial_227_5436" cx="0" cy="0" r="1" gradientUnits="userSpaceOnUse" gradientTransform="translate(922.5 922.5) rotate(-90) scale(307.5 307.5)">
<stop stop-color="#573BFF"/>
<stop offset="1" stop-color="#666BFC"/>
</radialGradient>
<radialGradient id="paint1_radial_227_5436" cx="0" cy="0" r="1" gradientUnits="userSpaceOnUse" gradientTransform="translate(310.529 309.19) rotate(135) scale(250.356 232.886)">
<stop stop-color="#9FFFF4"/>
<stop offset="0.308778" stop-color="#9FA8FE"/>
<stop offset="0.65774" stop-color="#9CFFF3"/>
<stop offset="0.793158" stop-color="#D0D5FF"/>
<stop offset="0.871284" stop-color="white"/>
<stop offset="0.907743" stop-color="white"/>
<stop offset="1" stop-color="#E8EBFF"/>
</radialGradient>
<radialGradient id="paint2_radial_227_5436" cx="0" cy="0" r="1" gradientUnits="userSpaceOnUse" gradientTransform="translate(308.797 307.788) rotate(136.045) scale(324.331 129.841)">
<stop offset="0.107714" stop-color="#ACFFF5"/>
<stop offset="0.576122" stop-color="white"/>
<stop offset="0.777533" stop-color="#B9C4FF"/>
</radialGradient>
</defs>
</svg>
