<svg xmlns="http://www.w3.org/2000/svg" fill="none" viewBox="0 0 50 50" class="h-8 w-8"><path fill="#FFD15C" d="M50 25c0 13.807-11.193 25-25 25S0 38.807 0 25 11.193 0 25 0s25 11.193 25 25"></path><path fill="#fff" stroke="#000" stroke-width="2.013" d="M12.891 35.245c.216-.147.417-.366.517-.678.112-.346.046-.65-.006-.82q-.003-.007-.005-.017l.041-.242q.172.097.398.257l.14.1.191.135c.084.058.203.14.329.207 3.333 2.072 6.09 2.926 8.28 2.82 2.264-.11 3.852-1.248 4.671-2.91.791-1.607.82-3.598.264-5.442-.558-1.856-1.732-3.66-3.482-4.908-2.95-2.104-5.652-5.302-7.018-8.022-.694-1.381-.97-2.495-.898-3.222.034-.339.138-.544.262-.675.124-.132.35-.278.786-.35.923-.152 1.99-.484 3.074-.821.42-.131.844-.263 1.262-.385 1.56-.457 3.214-.84 4.952-.837 3.37.006 7.325 1.47 11.49 7.556 5.349 7.82 2.412 16.557-3.75 21.147-3.074 2.29-6.909 3.505-10.85 3.043-3.547-.416-7.264-2.202-10.648-5.936Zm.62-2.024-.003.006zm-.334.153.01.001z"></path><path fill="#000" d="M15.954 11.878s9.556-2.545 11.649-2.545 10.453 4.06 12.893 11.48c3.46 10.518-5.95 17.414-7.012 16.738 10.122-8.37-6.447-23.84-14.59-22.676-1.018.145-.452 1.018-.452 1.018l-.226 2.262-1.697-2.828z"></path><path fill="#000" d="M39.104 17.649c3.017 5.312 2.39 2.27 1.72 8.344 1.24-2.006 3.179-.504 3.98.263.143.137.38.052.373-.147-.03-.9-.289-2.847-1.78-4.935-2.045-2.864-4.294-3.525-4.294-3.525"></path><path stroke="#000" stroke-width="0.113" d="M40.824 25.993c.67-6.073 1.297-3.032-1.72-8.344 0 0 2.248.661 4.293 3.525 1.491 2.088 1.75 4.035 1.78 4.935.007.199-.23.284-.374.147-.8-.767-2.739-2.269-3.979-.263Zm0 0 .296-.73"></path><path fill="#000" d="M14.823 25.183c-1.273 2.155-3.886 1.994-3.836 4.565 2.334 5.184 2.347 4.812 2.347 4.812 4.323-2.428 2.547-7.79 1.905-9.366-.072-.178-.318-.177-.416-.011"></path><path fill="#000" d="M5.025 29.949c2.483.324 3.964-1.834 5.959-.212 2.649 5.03 2.347 4.813 2.347 4.813-4.574 1.91-7.706-2.79-8.553-4.266-.096-.167.056-.36.247-.335M25.85 26.75s2.488 2.546 1.187 2.941c-1.622-.998-4.528-.222-5.953.258-.35.118-.694-.193-.568-.54.485-1.334 1.68-3.801 3.976-4.129 1.358-.34 1.358 1.47 1.358 1.47"></path><path fill="#fff" d="M27.376 14.31c-.282-.396-.848-1.47.905-1.47s4.432 1.984 4.977 2.718c-.17.448-1.301.548-1.867.504-.565-.043-1.526-.136-2.262-.504-.735-.367-1.47-.853-1.753-1.249"></path></svg>