<svg width="691" height="652" viewBox="0 0 691 652" fill="none" xmlns="http://www.w3.org/2000/svg">
<path d="M67.9964 595.347C67.9964 609.857 57.0362 621.696 34.8542 621.696H11.5496V649.32C11.5413 649.764 11.3535 650.187 11.0256 650.501C10.6989 650.813 10.2557 650.993 9.79356 651H1.75366C1.29149 650.993 0.849489 650.813 0.521572 650.501C0.194844 650.187 0.00712863 649.764 0 649.32V570.683C0.00712863 570.239 0.193656 569.816 0.521572 569.502C0.848301 569.187 1.2903 569.007 1.75366 569H34.8578C57.0409 569 68 580.83 68 595.347H67.9964ZM55.8873 595.347C55.8873 586.039 50.0264 578.413 32.5778 578.413H11.5614V612.282H32.5778C50.024 612.282 55.8885 604.688 55.8885 595.347" fill="white"/>
<path d="M207.988 610.002C208.123 615.387 207.145 620.746 205.11 625.77C203.075 630.796 200.024 635.389 196.13 639.288C192.236 643.186 187.576 646.315 182.415 648.495C177.254 650.675 171.695 651.863 166.053 651.991C165.509 652.002 164.963 652.004 164.419 651.991C155.7 652.072 147.153 649.678 139.863 645.112C132.572 640.547 126.867 634.017 123.472 626.351C120.078 618.685 119.145 610.227 120.794 602.054C122.442 593.881 126.598 586.36 132.733 580.446C138.868 574.532 146.705 570.492 155.25 568.838C163.795 567.183 172.662 567.991 180.726 571.157C188.788 574.323 195.684 579.706 200.537 586.621C205.391 593.536 207.982 601.671 207.982 609.994L207.988 610.002ZM195.898 609.994C195.898 590.673 182.696 577.366 164.416 577.366C146.137 577.366 132.933 590.679 132.933 609.994C132.933 629.31 146.137 642.627 164.419 642.627C182.701 642.627 195.9 629.32 195.9 609.994" fill="white"/>
<path d="M330.376 647.663C330.655 647.972 330.827 648.354 330.873 648.759C330.92 649.164 330.836 649.572 330.634 649.932C330.432 650.29 330.121 650.583 329.742 650.771C329.362 650.959 328.932 651.034 328.508 650.986H320.206C319.936 650.979 319.67 650.909 319.436 650.78C319.202 650.653 319.005 650.471 318.862 650.251L298.026 620.346H275.63V649.311C275.624 649.754 275.435 650.177 275.105 650.49C274.776 650.804 274.331 650.983 273.865 650.988H265.766C265.299 650.981 264.855 650.803 264.525 650.49C264.196 650.176 264.007 649.754 264 649.311V570.68C264.008 570.236 264.196 569.814 264.526 569.5C264.855 569.188 265.299 569.008 265.766 569H297.655C319.979 569 331 580.157 331 594.674C331 606.197 324.087 615.608 310.058 618.999L330.376 647.663ZM295.363 610.929C312.915 610.929 318.811 604.008 318.811 594.666C318.811 585.357 312.915 578.4 295.363 578.4H275.64V610.929H295.363Z" fill="white"/>
<path d="M455.996 570.68V576.728C455.991 577.166 455.81 577.585 455.491 577.899C455.172 578.212 454.74 578.394 454.284 578.407H424.748V649.32C424.741 649.764 424.554 650.187 424.228 650.501C423.902 650.813 423.463 650.993 423.002 651H415.013C414.553 650.993 414.112 650.815 413.786 650.501C413.46 650.188 413.273 649.764 413.265 649.32V578.407H383.747C383.286 578.401 382.846 578.222 382.519 577.91C382.193 577.596 382.006 577.171 382 576.728V570.68C382.007 570.236 382.194 569.812 382.52 569.499C382.847 569.185 383.286 569.007 383.747 569H454.288C454.743 569.014 455.175 569.196 455.494 569.508C455.813 569.822 455.994 570.241 456 570.68" fill="white"/>
<path d="M576.497 650.994H566.947C566.522 651.027 566.096 650.924 565.738 650.703C565.381 650.481 565.109 650.152 564.968 649.769L555.733 629.44H515.937L506.046 649.769C505.891 650.143 505.617 650.462 505.263 650.683C504.908 650.902 504.491 651.012 504.068 650.994H495.594C494.345 650.994 493.617 650.271 494.209 649.043L533.377 570.227C533.529 569.851 533.803 569.529 534.158 569.31C534.513 569.09 534.931 568.982 535.354 569.002H538.13C538.553 568.99 538.969 569.101 539.324 569.319C539.678 569.538 539.954 569.855 540.115 570.227L577.788 649.043C578.348 650.268 577.757 650.994 576.505 650.994H576.497ZM551.746 620.712L536.499 587.154L520.178 620.712H551.746Z" fill="white"/>
<path d="M690.995 643.27V649.318C691.008 649.526 690.979 649.734 690.908 649.931C690.838 650.129 690.728 650.31 690.585 650.465C690.442 650.621 690.269 650.749 690.075 650.84C689.881 650.931 689.67 650.984 689.455 650.997C689.388 651.001 689.322 651.001 689.255 650.997H632.733C632.276 650.99 631.838 650.81 631.515 650.497C631.192 650.183 631.006 649.76 631 649.318V570.68C631.006 570.236 631.192 569.813 631.515 569.5C631.838 569.187 632.276 569.008 632.733 569H640.69C641.147 569.007 641.585 569.187 641.909 569.5C642.233 569.813 642.418 570.236 642.426 570.68V641.587H689.261C689.696 641.562 690.123 641.706 690.449 641.986C690.774 642.266 690.972 642.659 690.996 643.08C691.001 643.145 691.001 643.209 690.996 643.274" fill="white"/>
<path d="M328 0C189.977 0 78 111.977 78 250C78 388.024 189.977 500 328 500C466.024 500 578 388.024 578 250C578 111.977 466.024 0 328 0ZM328 357.671C268.526 357.671 220.329 309.476 220.329 250C220.329 190.526 268.526 142.329 328 142.329C387.476 142.329 435.671 190.526 435.671 250C435.671 309.476 387.476 357.671 328 357.671Z" fill="url(#paint0_radial_10927_111106)"/>
<defs>
<radialGradient id="paint0_radial_10927_111106" cx="0" cy="0" r="1" gradientUnits="userSpaceOnUse" gradientTransform="translate(327.977 249.967) scale(209.538)">
<stop offset="0.2254" stop-color="white"/>
<stop offset="0.5444" stop-color="white" stop-opacity="0.44"/>
<stop offset="0.6859" stop-color="white" stop-opacity="0.23"/>
<stop offset="0.8568" stop-color="white" stop-opacity="0.07"/>
<stop offset="1" stop-color="white" stop-opacity="0"/>
</radialGradient>
</defs>
</svg>
