<?xml version="1.0" encoding="utf-8"?>
<svg version="1.1" id="Layer_1" xmlns="http://www.w3.org/2000/svg" xmlns:xlink="http://www.w3.org/1999/xlink" x="0px" y="0px"
	 viewBox="0 0 149.7 116.2" style="enable-background:new 0 0 149.7 173.2;" xml:space="preserve">
<style type="text/css">
	.st0{fill:#410096;}
	.st1{fill:#00DC7D;}	
</style>
<g>
	<g>
		<g>
			<g>
				<path class="st0" d="M84,38.2c0-1.8,1.3-4,2.8-4.9l9.4-5.5c1.6-0.9,2.8-0.2,2.8,1.6l0,11.5c0,1.8-1.3,4-2.8,4.9l-9.4,5.5
					c-1.6,0.9-2.8,0.2-2.8-1.6L84,38.2z"/>
			</g>
		</g>
	</g>
	<g>
		<g>
			<g>
				<path class="st1" d="M51.4,81.1c0-1.8,1.3-4,2.8-4.9l42-24.4c1.6-0.9,2.8-0.2,2.8,1.6l0,11.5c0,1.8-1.3,4-2.8,4.9l-42,24.4
					c-1.6,0.9-2.8,0.2-2.8-1.6L51.4,81.1z"/>
			</g>
		</g>
	</g>
	<g>
		<g>
			<g>
				<path class="st0" d="M63.8,26c0-1.8,1.3-4,2.8-4.9l14.6-8.5c1.6-0.9,2.8-0.2,2.8,1.6L84,31.6c0,1.8-1.3,4-2.8,4.9L66.5,45
					c-1.6,0.9-2.8,0.2-2.8-1.6L63.8,26z"/>
			</g>
		</g>
	</g>
	<g>
		<g>
			<g>
				<path class="st0" d="M42.8,10.8c0-1.8,1.3-4,2.8-4.9L55,0.4c1.6-0.9,2.8-0.2,2.8,1.6l0,11.4c0,1.8-1.3,4-2.8,4.9l-9.4,5.5
					c-1.6,0.9-2.8,0.2-2.8-1.6L42.8,10.8z"/>
			</g>
		</g>
	</g>
	<g>
		<g>
			<g>
				<path class="st1" d="M66.1,102.6c0-1.8,1.3-4,2.8-4.9l9.4-5.4c1.6-0.9,2.8-0.2,2.8,1.6l0,11.5c0,1.8-1.3,4-2.8,4.9l-9.4,5.4
					c-1.6,0.9-2.8,0.2-2.8-1.6L66.1,102.6z"/>
			</g>
		</g>
	</g>
</g>
</svg>
