<svg width="92" height="92" viewBox="0 0 92 92" fill="none" xmlns="http://www.w3.org/2000/svg">
<rect x="0.727051" y="0.5" width="90.5455" height="90.5455" rx="45.2727" fill="#C4FF61"/>
<path d="M45.9258 21.3483L34.5576 38.3902L35.9656 39.2466L45.9258 24.427V21.3483Z" fill="black" fill-opacity="0.7"/>
<path d="M57.294 38.4225L45.9258 21.3162V24.395L55.9985 39.4915L57.294 38.4225Z" fill="black" fill-opacity="0.7"/>
<path d="M45.9258 25.7637L38.0352 37.5891V40.6685L45.9258 28.8431V25.7637Z" fill="black" fill-opacity="0.7"/>
<path d="M53.8164 37.6114L45.9258 25.7415V28.8208L53.8164 40.6908V37.6114Z" fill="black" fill-opacity="0.7"/>
<path d="M45.9258 42.0089L53.8164 37.6291V40.7039L45.9258 45.0838V42.0089Z" fill="black" fill-opacity="0.7"/>
<path d="M38.0352 37.6068L45.9258 42.0312V45.106L38.0352 40.6816V37.6068Z" fill="black" fill-opacity="0.7"/>
<path d="M45.9258 44.761L57.294 38.4513V41.5248L45.9258 47.8345V44.761Z" fill="black" fill-opacity="0.7"/>
<path d="M34.5576 38.4192L45.9258 44.7931V47.8666L34.5576 41.4927V38.4192Z" fill="black" fill-opacity="0.7"/>
<path fill-rule="evenodd" clip-rule="evenodd" d="M45.9253 21.6436L57.2935 38.7388L45.9253 45.0761L34.5571 38.7049L45.9253 21.6436ZM38.0347 37.8987L45.9253 26.0623L53.8159 37.9222L45.9253 42.3193L38.0347 37.8987Z" fill="black"/>
<path d="M32.1162 43.2636L32.4773 42.7231V45.8062L32.1162 46.3467V43.2636Z" fill="black" fill-opacity="0.7"/>
<path d="M59.2422 42.722L59.6033 43.2646V46.3477L59.2422 45.8052V42.722Z" fill="black" fill-opacity="0.7"/>
<path d="M32.4771 42.722L45.8598 50.1587V53.2318L32.4771 45.7951V42.722Z" fill="black"/>
<path d="M45.8599 50.1216L59.2426 42.7592V45.8323L45.8599 53.1947V50.1216Z" fill="black" fill-opacity="0.7"/>
<path d="M29.5527 51.615C29.5533 48.7322 30.3944 45.8342 32.116 43.2708V46.3529C30.3944 48.9163 29.5533 51.8143 29.5527 54.697V51.615Z" fill="black" fill-opacity="0.7"/>
<path d="M59.6035 43.2637C61.3314 45.8396 62.1749 48.746 62.1743 51.632V54.7079C62.1737 51.8239 61.3301 48.9198 59.6035 46.3457V43.2637Z" fill="black" fill-opacity="0.7"/>
<path d="M29.5527 51.6263C29.5527 51.6242 29.5527 51.6221 29.5527 51.62V51.6263C29.5536 55.634 31.1799 59.6118 34.3241 62.6188V65.6998C31.1782 62.6912 29.5519 58.7109 29.5527 54.7011V51.6263Z" fill="black"/>
<path d="M29.5527 51.62C29.5527 51.6221 29.5527 51.6242 29.5527 51.6263V51.62Z" fill="black"/>
<path d="M62.1744 51.6433C62.1736 55.6498 60.5448 59.617 57.3955 62.6056V65.6867C60.5448 62.6981 62.1736 58.7309 62.1744 54.7244V51.6433Z" fill="black"/>
<path d="M57.3957 62.6797C51.0191 68.678 40.6905 68.6494 34.3242 62.6158V65.674C40.6905 71.7076 51.0191 71.7362 57.3957 65.7378V62.6797Z" fill="black"/>
<path d="M45.8598 50.1656L32.4771 42.7302L32.116 43.2688C30.3944 45.8243 29.5533 48.7134 29.5527 51.5873C29.5519 55.5861 31.1782 59.5554 34.3241 62.5557C40.6904 68.6176 51.0189 68.6462 57.3956 62.6197C60.5449 59.6393 62.1736 55.6831 62.1745 51.6877C62.1751 48.8105 61.3315 45.9131 59.6037 43.3451L59.2426 42.8044L45.8598 50.1656Z" fill="black"/>
<path d="M46.4851 55.7135C39.4583 50.89 33.9613 50.8802 29.6079 52.5429V55.6074C33.9613 53.9446 39.4583 53.9545 46.4851 58.7779V55.7135Z" fill="black"/>
<path d="M60.5989 58.3169C58.0143 60.2973 53.9176 60.8008 46.4849 55.694V58.7613C53.9176 63.8681 58.0143 63.3646 60.5989 61.3842V58.3169Z" fill="black" fill-opacity="0.7"/>
<path d="M34.3473 62.5714C31.457 59.8075 29.8494 56.2233 29.6079 52.5494V55.6304C29.8494 59.3042 31.457 62.8884 34.3473 65.6524V62.5714Z" fill="black"/>
<path d="M60.5993 58.3012C59.8186 59.8503 58.7558 61.2949 57.4189 62.5633V65.6436C58.7558 64.3753 59.8186 62.9306 60.5993 61.3815V58.3012Z" fill="black"/>
<path d="M57.4192 62.6313C51.0425 68.6308 40.714 68.6028 34.3477 62.5686V65.6273C40.714 71.6615 51.0425 71.6895 57.4192 65.6899V62.6313Z" fill="black"/>
<path fill-rule="evenodd" clip-rule="evenodd" d="M60.5991 58.3402C58.0146 60.3207 53.9178 60.8241 46.4851 55.7173C39.4583 50.8894 33.9613 50.8795 29.6079 52.5439C29.8494 56.2015 31.457 59.7698 34.3473 62.5215C40.7136 68.5727 51.0422 68.6008 57.4188 62.5843C58.7556 61.3213 59.8185 59.8828 60.5991 58.3402Z" fill="white" fill-opacity="0.1"/>
</svg>
