<svg width="100" height="101" viewBox="0 0 100 101" fill="none" xmlns="http://www.w3.org/2000/svg">
<rect y="0.5" width="100" height="100" rx="50" fill="black"/>
<path d="M49.9258 26.0756L38.5576 43.1192V46.1982L49.9258 29.1546V26.0756Z" fill="#98D120"/>
<path d="M61.294 43.1513L49.9258 26.0435V29.1225L61.294 46.2303V43.1513Z" fill="#98D120"/>
<path d="M49.9258 30.491L42.0352 42.3164V45.3958L49.9258 33.5704V30.491Z" fill="#98D120"/>
<path d="M57.8164 42.3387L49.9258 30.4688V33.5481L57.8164 45.418V42.3387Z" fill="#98D120"/>
<path d="M49.9258 46.7362L57.8164 42.3564V45.4312L49.9258 49.8111V46.7362Z" fill="#98D120"/>
<path d="M42.0352 42.3341L49.9258 46.7585V49.8333L42.0352 45.4089V42.3341Z" fill="#98D120"/>
<path d="M49.9258 49.4883L61.294 43.1785V46.2521L49.9258 52.5618V49.4883Z" fill="#98D120"/>
<path d="M38.5576 43.1465L49.9258 49.5204V52.5939L38.5576 46.22V43.1465Z" fill="#98D120"/>
<path fill-rule="evenodd" clip-rule="evenodd" d="M49.9258 26.0607L61.294 43.1559L49.9258 49.4932L38.5576 43.1221L49.9258 26.0607ZM42.0352 42.3158L49.9258 30.4794L57.8164 42.3393L49.9258 46.7365L42.0352 42.3158Z" fill="#C4FF61"/>
<path d="M36.1162 47.9909L36.4773 47.4503V50.5335L36.1162 51.074V47.9909Z" fill="#98D120"/>
<path d="M63.2422 47.4493L63.6033 47.9919V51.075L63.2422 50.5325V47.4493Z" fill="#98D120"/>
<path d="M36.4766 47.4493L49.8593 54.886V57.9591L36.4766 50.5224V47.4493Z" fill="#C4FF61"/>
<path d="M49.8604 54.8489L63.2431 47.4865V50.5596L49.8604 57.922V54.8489Z" fill="#98D120"/>
<path d="M33.5527 56.3423C33.5533 53.4595 34.3944 50.5615 36.116 47.9981V51.0801C34.3944 53.6436 33.5533 56.5416 33.5527 59.4243V56.3423Z" fill="#98D120"/>
<path d="M63.6035 47.991C65.3314 50.5669 66.1749 53.4733 66.1743 56.3593V59.4352C66.1737 56.5512 65.3301 53.6471 63.6035 51.073V47.991Z" fill="#98D120"/>
<path d="M33.5527 56.3536C33.5527 56.3515 33.5527 56.3494 33.5527 56.3473V56.3536C33.5536 60.3613 35.1799 64.3391 38.3241 67.3461V70.4271C35.1782 67.4185 33.5519 63.4382 33.5527 59.4284V56.3536Z" fill="#C4FF61"/>
<path d="M33.5527 56.3473C33.5527 56.3494 33.5527 56.3515 33.5527 56.3536V56.3473Z" fill="#C4FF61"/>
<path d="M66.1744 56.3706C66.1736 60.3771 64.5448 64.3443 61.3955 67.3329V70.414C64.5448 67.4254 66.1736 63.4582 66.1744 59.4517V56.3706Z" fill="#98D120"/>
<path d="M61.3957 67.4069C55.0191 73.4053 44.6905 73.3767 38.3242 67.3431V70.4013C44.6905 76.4349 55.0191 76.4635 61.3957 70.4651V67.4069Z" fill="#C4FF61"/>
<path d="M49.8598 54.8929L36.4771 47.4575L36.116 47.9961C34.3944 50.5516 33.5533 53.4407 33.5527 56.3146C33.5519 60.3134 35.1782 64.2827 38.3241 67.283C44.6904 73.3449 55.0189 73.3735 61.3956 67.347C64.5449 64.3666 66.1736 60.4104 66.1745 56.4149C66.1751 53.5378 65.3315 50.6404 63.6037 48.0724L63.2426 47.5317L49.8598 54.8929Z" fill="#C4FF61"/>
<path d="M50.4856 60.4408C43.4588 55.6173 37.9618 55.6074 33.6084 57.2702V60.3347C37.9618 58.6719 43.4588 58.6818 50.4856 63.5052V60.4408Z" fill="#C4FF61"/>
<path d="M64.5993 63.0442C62.0148 65.0246 57.9181 65.5281 50.4854 60.4213V63.4886C57.9181 68.5954 62.0148 68.0919 64.5993 66.1115V63.0442Z" fill="#98D120"/>
<path d="M38.3478 67.2987C35.4575 64.5348 33.8498 60.9506 33.6084 57.2767V60.3577C33.8498 64.0315 35.4575 67.6157 38.3478 70.3797V67.2987Z" fill="#98D120"/>
<path d="M64.6002 63.0285C63.8196 64.5776 62.7567 66.0222 61.4199 67.2906V70.3709C62.7567 69.1026 63.8196 67.6579 64.6002 66.1088V63.0285Z" fill="#98D120"/>
<path d="M61.4192 67.3586C55.0425 73.3581 44.714 73.3301 38.3477 67.2959V70.3546C44.714 76.3888 55.0425 76.4168 61.4192 70.4172V67.3586Z" fill="#98D120"/>
<path fill-rule="evenodd" clip-rule="evenodd" d="M64.5996 63.0675C62.0151 65.048 57.9183 65.5514 50.4856 60.4446C43.4588 55.6167 37.9618 55.6068 33.6084 57.2712C33.8498 60.9288 35.4575 64.4971 38.3478 67.2488C44.7141 73.3 55.0427 73.3281 61.4193 67.3116C62.7561 66.0486 63.819 64.6101 64.5996 63.0675Z" fill="#B3E54C"/>
</svg>
