<svg width="157" height="137" viewBox="0 0 157 137" fill="none" xmlns="http://www.w3.org/2000/svg"><path d="M2.36464 0.436523H30.1396L49.4675 49.6869L70.9429 0.436523H99.0042L62.9254 76.8891C55.9101 91.6356 55.4806 92.3514 51.1855 94.9285C47.0336 97.5056 41.45 98.6509 32.7166 98.6509C27.4193 98.6509 23.5537 98.5077 21.8357 98.2214V80.8979C23.2674 80.7547 23.4106 80.7547 27.5625 80.7547C36.0095 80.8979 38.5866 78.6072 42.7385 68.1558H32.5734L2.36464 0.436523Z" fill="url(#paint0_linear_13692_108760)"></path><path d="M154.247 98.651H126.472L107.144 49.4006L85.669 98.6509H57.6077L93.6865 22.1984C100.702 7.45189 101.131 6.73603 105.426 4.15898C109.578 1.58193 115.162 0.436575 123.895 0.436575C129.193 0.436576 133.058 0.579749 134.776 0.866089V18.1896C133.344 18.3328 133.201 18.3328 129.049 18.3328C120.602 18.1896 118.025 20.4803 113.873 30.9317H124.038L154.247 98.651Z" fill="url(#paint1_linear_13692_108760)"></path><path d="M0.112305 123.927H5.84798C5.84798 125.092 5.96444 125.471 6.43028 125.762C6.98347 126.111 7.624 126.169 11.7875 126.169C18.1345 126.169 18.1346 126.169 18.1346 124.452C18.1346 123.287 17.6978 122.996 15.8053 122.967L11.1469 122.792L8.0025 122.646L6.43028 122.588C1.62629 122.443 0.286995 121.22 0.286995 116.94C0.286995 113.242 1.33514 111.583 4.01373 111C5.14922 110.767 7.82781 110.651 12.4862 110.651C18.1345 110.651 20.1726 110.913 21.541 111.845C22.7056 112.631 23.1715 113.854 23.1715 116.154C23.1715 116.27 23.1715 116.678 23.1423 117.056H17.4358C17.3776 115.979 17.2902 115.717 16.8535 115.455C16.3585 115.164 15.6307 115.106 11.4381 115.106C6.43028 115.106 6.02267 115.222 6.02267 116.649C6.02267 117.377 6.28471 117.755 6.89612 117.901C7.42019 118.046 9.02153 118.134 13.1268 118.25C19.5321 118.454 20.784 118.599 22.036 119.385C23.3753 120.259 23.8702 121.569 23.8702 124.277C23.8702 127.654 23.055 129.314 21.0461 130.071C19.8815 130.507 17.4358 130.653 11.6419 130.653C5.61506 130.653 3.25674 130.391 1.88833 129.518C0.549031 128.673 0.112305 127.538 0.112305 124.859V123.927Z" fill="url(#paint2_linear_13692_108760)"></path><path d="M24.2511 116.59H29.8994L33.83 126.606L38.1972 116.59H43.9038L36.5668 132.138C35.1401 135.137 35.0528 135.282 34.1793 135.806C33.335 136.33 32.1995 136.563 30.4235 136.563C29.3462 136.563 28.5601 136.534 28.2107 136.476V132.953C28.5019 132.924 28.531 132.924 29.3753 132.924C31.0931 132.953 31.6172 132.487 32.4615 130.362H30.3944L24.2511 116.59Z" fill="url(#paint3_linear_13692_108760)"></path><path d="M44.7543 116.59H49.6166V118.687H49.8786C50.8103 116.911 52.3825 116.241 55.7307 116.241C59.0207 116.241 60.7094 116.707 61.9322 117.959C63.1842 119.269 63.4462 120.317 63.4462 124.102V130.362H58.2929V124.102C58.2929 121.889 58.2055 121.394 57.6523 120.87C57.0991 120.317 56.1092 120.113 54.1876 120.113C52.2951 120.113 51.2761 120.375 50.6647 121.016C50.0242 121.686 49.9077 122.326 49.9077 124.859V130.362H44.7543V116.59Z" fill="url(#paint4_linear_13692_108760)"></path><path d="M75.1083 116.241C79.8249 116.241 81.8047 116.561 83.0858 117.493C84.4833 118.512 84.8618 119.764 84.8618 123.229C84.8618 127.014 84.5125 128.295 83.2605 129.343C81.9503 130.42 80.2325 130.711 75.1374 130.711C69.984 130.711 68.2662 130.42 66.9561 129.343C65.675 128.295 65.3547 127.014 65.3547 123.025C65.3547 119.793 65.7623 118.483 67.1308 117.493C68.4118 116.561 70.4207 116.241 75.1083 116.241ZM75.1374 120.113C71.2069 120.113 70.5081 120.637 70.5081 123.578C70.5081 125.412 70.741 126.024 71.6727 126.402C72.3132 126.693 73.4778 126.839 75.1374 126.839C79.0388 126.839 79.7085 126.344 79.7085 123.432C79.7085 121.569 79.4173 120.899 78.4565 120.521C77.816 120.259 76.5932 120.113 75.1374 120.113Z" fill="url(#paint5_linear_13692_108760)"></path><path d="M86.8258 116.59H91.688V118.687H91.9501C92.8818 116.911 94.454 116.241 97.8022 116.241C101.092 116.241 102.781 116.707 104.004 117.959C105.256 119.269 105.518 120.317 105.518 124.102V130.362H100.364V124.102C100.364 121.889 100.277 121.394 99.7238 120.87C99.1706 120.317 98.1807 120.113 96.2591 120.113C94.3666 120.113 93.3476 120.375 92.7362 121.016C92.0957 121.686 91.9792 122.326 91.9792 124.859V130.362H86.8258V116.59Z" fill="url(#paint6_linear_13692_108760)"></path><path d="M105.92 116.59H111.569L115.499 126.606L119.867 116.59H125.573L118.236 132.138C116.809 135.137 116.722 135.282 115.849 135.806C115.004 136.33 113.869 136.563 112.093 136.563C111.016 136.563 110.229 136.534 109.88 136.476V132.953C110.171 132.924 110.2 132.924 111.045 132.924C112.762 132.953 113.287 132.487 114.131 130.362H112.064L105.92 116.59Z" fill="url(#paint7_linear_13692_108760)"></path><path d="M126.424 116.59H131.286V118.658H131.548C132.305 116.998 134.052 116.241 137.109 116.241C140.428 116.241 142.262 117.085 143.369 119.123C144.242 117.056 145.931 116.241 149.308 116.241C152.161 116.241 153.85 116.765 155.044 118.017C156.238 119.24 156.5 120.375 156.5 123.927V130.362H151.346V123.927C151.317 121.627 151.259 121.365 150.764 120.87C150.24 120.346 149.366 120.113 147.852 120.113C146.309 120.113 145.348 120.375 144.795 120.987C144.213 121.627 144.038 122.443 144.038 124.684V130.362H138.885V123.927C138.885 121.773 138.827 121.394 138.332 120.87C137.866 120.346 136.963 120.113 135.478 120.113C133.935 120.113 132.916 120.375 132.334 120.958C131.752 121.54 131.577 122.413 131.577 124.684V130.362H126.424V116.59Z" fill="url(#paint8_linear_13692_108760)"></path><defs><linearGradient id="paint0_linear_13692_108760" x1="0.112307" y1="142.874" x2="161.198" y2="137.347" gradientUnits="userSpaceOnUse"><stop stop-color="#AB9A00"></stop><stop offset="1" stop-color="#AB6700"></stop></linearGradient><linearGradient id="paint1_linear_13692_108760" x1="0.112307" y1="142.874" x2="161.198" y2="137.347" gradientUnits="userSpaceOnUse"><stop stop-color="#AB9A00"></stop><stop offset="1" stop-color="#AB6700"></stop></linearGradient><linearGradient id="paint2_linear_13692_108760" x1="0.112307" y1="142.874" x2="161.198" y2="137.347" gradientUnits="userSpaceOnUse"><stop stop-color="#AB9A00"></stop><stop offset="1" stop-color="#AB6700"></stop></linearGradient><linearGradient id="paint3_linear_13692_108760" x1="0.112307" y1="142.874" x2="161.198" y2="137.347" gradientUnits="userSpaceOnUse"><stop stop-color="#AB9A00"></stop><stop offset="1" stop-color="#AB6700"></stop></linearGradient><linearGradient id="paint4_linear_13692_108760" x1="0.112307" y1="142.874" x2="161.198" y2="137.347" gradientUnits="userSpaceOnUse"><stop stop-color="#AB9A00"></stop><stop offset="1" stop-color="#AB6700"></stop></linearGradient><linearGradient id="paint5_linear_13692_108760" x1="0.112307" y1="142.874" x2="161.198" y2="137.347" gradientUnits="userSpaceOnUse"><stop stop-color="#AB9A00"></stop><stop offset="1" stop-color="#AB6700"></stop></linearGradient><linearGradient id="paint6_linear_13692_108760" x1="0.112307" y1="142.874" x2="161.198" y2="137.347" gradientUnits="userSpaceOnUse"><stop stop-color="#AB9A00"></stop><stop offset="1" stop-color="#AB6700"></stop></linearGradient><linearGradient id="paint7_linear_13692_108760" x1="0.112307" y1="142.874" x2="161.198" y2="137.347" gradientUnits="userSpaceOnUse"><stop stop-color="#AB9A00"></stop><stop offset="1" stop-color="#AB6700"></stop></linearGradient><linearGradient id="paint8_linear_13692_108760" x1="0.112307" y1="142.874" x2="161.198" y2="137.347" gradientUnits="userSpaceOnUse"><stop stop-color="#AB9A00"></stop><stop offset="1" stop-color="#AB6700"></stop></linearGradient></defs></svg>