<svg width="36" height="36" viewBox="0 0 36 36" fill="none" xmlns="http://www.w3.org/2000/svg">
<path d="M3.09459 0.208672C1.68005 0.703144 0.661583 1.7486 0.208931 3.16139C-0.00324976 3.78301 -0.0173951 5.32295 0.0108956 18.0521L0.0533317 32.2506L0.406966 32.957C0.845473 33.8612 1.69419 34.7088 2.5995 35.1468L3.30677 35.5H18.018H32.7291L33.4364 35.1468C34.3417 34.7088 35.1904 33.8612 35.6289 32.957L35.9826 32.2506V17.7696V3.28854L35.6289 2.58215C35.1904 1.67797 34.3417 0.830296 33.4364 0.392334L32.7291 0.0391388L18.2301 0.0108833C5.31541 -0.0173759 3.6604 -0.00324631 3.09459 0.208672ZM21.9079 6.89114V9.01031H13.5622H5.21639V6.89114V4.77196H13.5622H21.9079V6.89114ZM30.8195 6.89114V9.01031H27.1417H23.4639V6.89114V4.77196H27.1417H30.8195V6.89114ZM21.9079 14.0963V16.2155H18.018H14.128V14.0963V11.9772H18.018H21.9079V14.0963ZM21.9079 21.3015V23.4207H18.018H14.128V21.3015V19.1824H18.018H21.9079V21.3015ZM21.9079 28.5067V30.6259H18.018H14.128V28.5067V26.3875H18.018H21.9079V28.5067Z" fill="#0057BA"/>
</svg>
