<svg width="384" height="317" viewBox="0 0 1152 951" fill="none" xmlns="http://www.w3.org/2000/svg">
<g clip-path="url(#clip0_22_579)">
<rect x="431.615" y="144.192" width="143.231" height="143.231" fill="#D9D9D9" fill-opacity="0.02"/>
<rect x="143.231" width="143.231" height="143.231" fill="#D9D9D9" fill-opacity="0.02"/>
<rect y="144.192" width="143.231" height="143.231" fill="#D9D9D9" fill-opacity="0.02"/>
<rect x="720" y="288.384" width="143.231" height="143.231" fill="#D9D9D9" fill-opacity="0.02"/>
<rect x="864.192" width="143.231" height="143.231" fill="#D9D9D9" fill-opacity="0.02"/>
<rect x="143.231" y="432.577" width="143.231" height="143.231" fill="url(#paint0_linear_22_579)" fill-opacity="0.02"/>
<rect x="575.808" y="432.577" width="143.231" height="143.231" fill="url(#paint1_linear_22_579)" fill-opacity="0.02"/>
<rect x="1008.38" y="432.577" width="143.231" height="143.231" fill="url(#paint2_linear_22_579)" fill-opacity="0.02"/>
<path opacity="0.2" d="M575.52 -95.9355L575.52 888.417M431.328 -95.9355L431.328 888.417M287.135 -95.9355L287.136 888.417M142.943 -95.9355L142.943 888.417M-1.24904 -95.9355L-1.249 888.417M719.712 -95.9355L719.712 888.417M863.905 -95.9355L863.905 888.417M1008.1 -95.9355V888.417M1152.29 -95.9355V888.417M-117.083 -0.288017L1267.16 -0.287888M-117.083 143.904L1267.16 143.904M-117.083 288.096L1267.16 288.097M-117.083 432.289L1267.16 432.289M-117.083 576.481L1267.16 576.481M-117.083 720.673L1267.16 720.673" stroke="url(#paint3_linear_22_579)"/>
</g>
<defs>
<linearGradient id="paint0_linear_22_579" x1="214.847" y1="432.577" x2="214.847" y2="575.808" gradientUnits="userSpaceOnUse">
<stop stop-color="#D9D9D9"/>
<stop offset="1" stop-opacity="0"/>
</linearGradient>
<linearGradient id="paint1_linear_22_579" x1="647.423" y1="432.577" x2="647.423" y2="575.808" gradientUnits="userSpaceOnUse">
<stop stop-color="#D9D9D9"/>
<stop offset="1" stop-opacity="0"/>
</linearGradient>
<linearGradient id="paint2_linear_22_579" x1="1080" y1="432.577" x2="1080" y2="575.808" gradientUnits="userSpaceOnUse">
<stop stop-color="#D9D9D9"/>
<stop offset="1" stop-opacity="0"/>
</linearGradient>
<linearGradient id="paint3_linear_22_579" x1="575.039" y1="-445.842" x2="575.039" y2="607.723" gradientUnits="userSpaceOnUse">
<stop stop-color="white"/>
<stop offset="1" stop-opacity="0"/>
</linearGradient>
<clipPath id="clip0_22_579">
<rect width="1152" height="951" fill="white"/>
</clipPath>
</defs>
</svg>
